<svg xmlns="http://www.w3.org/2000/svg" width="30" height="30" viewBox="0 0 30 30">
    <defs>
        <style>
            .cls-1{fill:#fff}.cls-2{fill:#f7f2da}.cls-3{fill:#742b3f}.cls-4{fill:#231f20}
        </style>
    </defs>
    <g id="Group_415" data-name="Group 415">
        <path id="Rectangle_17" data-name="Rectangle 17" class="cls-1" d="M0 0h30v30H0z"/>
        <g id="Group_215" data-name="Group 215">
            <path id="Path_283" data-name="Path 283" class="cls-1" d="M37.4 17.38a3.007 3.007 0 0 0-1.46-2.962 2.723 2.723 0 0 1-.624 2l-.19-.092-.413-1.072 1.787-3.603c.085.317.19.694.19.694l.519-.991a3.874 3.874 0 0 0 .392-1.92l.434-.878-.254-3.564a2.085 2.085 0 0 0-1.46-1.43 2 2 0 0 0-1.884.306L26.611 9.71a10.536 10.536 0 0 0-9.016 4.923L8.6 21.639a6.015 6.015 0 0 0 6.212 3.1l1.8-.317s1.481 7.782 8.487 9.028c0 0-2.37-3.718-1.8-6.792 0 0 1.619 4.5 4.741 3.871a5.75 5.75 0 0 1-1.14-5.918 4.481 4.481 0 0 0 4.138 1.757 5.4 5.4 0 0 1-1.3-4.688l4.73.163 2.466-1 1.666-2.932zm-.772 3.135-2.233.909-4.984-.174a5.375 5.375 0 0 0 .762 4.7 4.136 4.136 0 0 1-3.354-2.206 6.234 6.234 0 0 0 .423 6.424s-2.349.143-3.958-4.831c-1.206 2.574.021 5.709.974 7.466-5.6-1.512-7.048-7.762-7.312-8.844l-2.423.419a5.58 5.58 0 0 1-5.365-2.625l8.783-6.822a10.1 10.1 0 0 1 8.847-4.8l7.937-5.924a1.593 1.593 0 0 1 1.492-.235 1.726 1.726 0 0 1 1.164 1.093l.243 3.421-.434.878a3.18 3.18 0 0 1-.339 1.818 3.352 3.352 0 0 0-.254-.633l-2.328 4.7.54 1.389.646.306a3.165 3.165 0 0 0 .868-1.634 2.433 2.433 0 0 1 .614 2.318l1.079.47z" transform="translate(-8.6 -3.456)"/>
            <g id="Group_212" data-name="Group 212" transform="translate(2.511 3.477)">
                <path id="Path_284" data-name="Path 284" class="cls-2" d="M156.021 74.962c.085-.256-.427-.2-.427-.2a3.8 3.8 0 0 1 .887-.417c.128-.16.235-.278.278-.342a4.875 4.875 0 0 0-2.158 1.058 7.114 7.114 0 0 1 1.42-.099z" transform="translate(-141.667 -69.94)"/>
                <path id="Path_285" data-name="Path 285" class="cls-2" d="M140.654 46.881a2.865 2.865 0 0 0-.032-1.68 2.619 2.619 0 0 1-.887 1.255l-1.111-.506 2.276 1.4-1.389.314-1.239-.435h-.011a2.94 2.94 0 0 0-.075-1.7 3.015 3.015 0 0 1-.929 1.356l-1.2-.425-1-2.49 3.664-5.608a2.765 2.765 0 0 1 .609.86 2.915 2.915 0 0 0-.107-1.63l.449-.678 1.047-.719.192.931-1.741 4.565 1.367-2.834c.064.04.192.142.47.7a3.713 3.713 0 0 0-.075-1.417l.406-.729-.6-1.407-1.688.881-5.545 5.962a8.475 8.475 0 0 0-2.575 1.5s1.442.263 1.581 1.184c-.566.213-10.908 6.863-6.485 13.655a11.567 11.567 0 0 0 1.474 1.741 8.706 8.706 0 0 1-1.058-5.274 9.534 9.534 0 0 1 1.6-4.272s-.043 3.776 1.592 5.942a4.09 4.09 0 0 0 .609.658 6.242 6.242 0 0 1-.243-4.358 12.956 12.956 0 0 1 1.41-3.431c-.459 2.065 1.5 3.533 1.987 3.937a5.489 5.489 0 0 1-.15-4.494s5.267.182 5.31.192l1.838-1.711.139.921 1.015-1.751-.9-.4zm-6.4-2.986 1.688-1.943-1.218 1.948.994 2.571z" transform="translate(-115.301 -36)"/>
                <path id="Path_286" data-name="Path 286" class="cls-2" d="M32.1 157.13a3.377 3.377 0 0 0 2.671 1.367c-.224-.224-.972-1-.748-1.581a3.14 3.14 0 0 0 1.5.588 3.922 3.922 0 0 1 .5-3.5c-1.786 1.417-3.923 3.126-3.923 3.126z" transform="translate(-32.1 -142.193)"/>
            </g>
            <g id="Group_213" data-name="Group 213" transform="translate(1.4 1.009)">
                <path id="Path_287" data-name="Path 287" class="cls-3" d="m241.3 106.286.823 1.175-.459-1.164.459-1.2z" transform="translate(-218.127 -95.765)"/>
                <path id="Path_288" data-name="Path 288" class="cls-3" d="M48.266 14.781c-.338-2.2-1.216-.559-1.438-1.881l-.729.549a10.044 10.044 0 0 0-.169 1.678 3.351 3.351 0 0 1-.677-1.017 10.441 10.441 0 0 0-.18 1.831 3.626 3.626 0 0 1-.751-1.129 11.9 11.9 0 0 0-.2 1.993 4.089 4.089 0 0 1-.814-1.22 12.693 12.693 0 0 0-.211 2.2 4.317 4.317 0 0 1-.92-1.4l-3.647 2.699a7.182 7.182 0 0 0-1.8 3.061 10.691 10.691 0 0 1 .1-1.546 21.11 21.11 0 0 0-2.178 1.79 4.243 4.243 0 0 1 .592-1.871 29.286 29.286 0 0 0-2.717 2.349 10.139 10.139 0 0 1 2.99-3.367 8.983 8.983 0 0 0-6.163 5.807 9.187 9.187 0 0 1 .116-1.139l-7.77 5.91s1.195 2.115 4.567 2.034l4.4-.671a5.914 5.914 0 0 1-.391-1.922 4.763 4.763 0 0 0 1.459 2.441l-2.474.315c.444 1.556 1.427 5.95 5.9 8.014a10.983 10.983 0 0 1-1.461-1.75 7.312 7.312 0 0 1-.433-7.841s-1.565.5-2-.722c2.1 1.6 7.083-4.414 6.036-6.336a9 9 0 0 1 3.52-1.81l5.777-5.686 1.67-.885.592 1.414-.19-2.848a3.846 3.846 0 0 0-.406.956zM26.024 31.552a5.111 5.111 0 0 1-.592-.02 3.388 3.388 0 0 1-2.643-1.3s2.125-1.627 3.88-2.98a126.59 126.59 0 0 0 2.178-1.7c-4.482 4.18.92 5.36.92 5.36z" transform="translate(-21.7 -12.9)"/>
                <path id="Path_289" data-name="Path 289" class="cls-3" d="m252.3 157.395 1.987-.833-.139-.961z" transform="translate(-227.952 -141.136)"/>
                <path id="Path_290" data-name="Path 290" class="cls-3" d="M140.6 187.8a10.372 10.372 0 0 0-1.6 4.508 6.809 6.809 0 0 1 1.261-3.1 9.049 9.049 0 0 0 1.923 4.85c-1.614-2.258-1.584-6.258-1.584-6.258z" transform="translate(-126.617 -170.497)"/>
                <path id="Path_291" data-name="Path 291" class="cls-3" d="M173.81 176a14.112 14.112 0 0 0-1.41 3.622 7.482 7.482 0 0 1 1.079-2.094 4.758 4.758 0 0 0 2.308 2.628c-.481-.428-2.447-1.977-1.977-4.156z" transform="translate(-156.493 -159.554)"/>
            </g>
            <g id="Group_214" data-name="Group 214" transform="translate(.556 .461)">
                <path id="Path_292" data-name="Path 292" class="cls-4" d="M40.954 19.175a3.159 3.159 0 0 1-.867 1.631l-.645-.306-.542-1.386 2.327-4.69a3.343 3.343 0 0 1 .254.632 3.275 3.275 0 0 0 .338-1.815l.434-.877-.243-3.415a1.7 1.7 0 0 0-1.164-1.091 1.617 1.617 0 0 0-1.491.234l-7.933 5.913A10.086 10.086 0 0 0 22.58 18.8l-8.78 6.81a5.579 5.579 0 0 0 5.363 2.62l2.422-.418c.254 1.081 1.7 7.32 7.309 8.829-.952-1.754-2.168-4.884-.973-7.453 1.608 4.965 3.956 4.822 3.956 4.822a6.216 6.216 0 0 1-.423-6.413 4.125 4.125 0 0 0 3.353 2.2 5.4 5.4 0 0 1-.762-4.69l4.982.173 2.232-.907 1.375-2.406-1.077-.467a2.448 2.448 0 0 0-.603-2.325zm-10.113-4.639a3.379 3.379 0 0 0-.275.326 3.83 3.83 0 0 0-.878.4s.5-.051.423.194a5.849 5.849 0 0 0-1.4.092 4.5 4.5 0 0 1 2.13-1.012zM42 22l-1 1.764-1.957.8c-.042 0-5.257-.194-5.257-.194a5.659 5.659 0 0 0 .148 4.527 4.628 4.628 0 0 1-2.285-2.508 7.035 7.035 0 0 0-1.068 2 6.385 6.385 0 0 0 .243 4.384 4.091 4.091 0 0 1-.6-.663 8.4 8.4 0 0 1-1.9-4.629 6.264 6.264 0 0 0-1.248 2.957 8.9 8.9 0 0 0 1.047 5.312c-4.464-2.07-5.448-6.464-5.9-8.034l2.475-.316a4.775 4.775 0 0 1-1.46-2.447 5.938 5.938 0 0 0 .391 1.927l-4.4.673c-3.374.082-4.57-2.039-4.57-2.039l7.775-5.923a9.225 9.225 0 0 0-.116 1.142 9 9 0 0 1 6.154-5.833 10.279 10.279 0 0 0-2.994 3.375 29.32 29.32 0 0 1 2.722-2.352 4.26 4.26 0 0 0-.6 1.877 21.129 21.129 0 0 1 2.183-1.8 10.737 10.737 0 0 0-.1 1.55 7.093 7.093 0 0 1 1.8-3.069l3.639-2.712a4.328 4.328 0 0 0 .92 1.407 12.874 12.874 0 0 1 .212-2.2 3.951 3.951 0 0 0 .815 1.223 10.768 10.768 0 0 1 .2-2 3.45 3.45 0 0 0 .751 1.132A10.486 10.486 0 0 1 38.2 9.5a3.165 3.165 0 0 0 .677 1.02 9.021 9.021 0 0 1 .169-1.682l.73-.551C40 9.6 40.88 7.97 41.218 10.172a4.741 4.741 0 0 1 .391-.969l.19 2.855-.4.734a3.823 3.823 0 0 1 .074 1.427c-.275-.561-.4-.652-.465-.7l-1.365 2.834 1.724-4.6-.19-.938-1.037.724-.444.683a2.984 2.984 0 0 1 .106 1.641A3.188 3.188 0 0 0 39.2 13l-3.628 5.648.994 2.508 1.185.428a3.036 3.036 0 0 0 .92-1.366 3.012 3.012 0 0 1 .074 1.713h.011l1.227.438 1.375-.316-2.258-1.41 1.1.51a2.619 2.619 0 0 0 .878-1.264 2.937 2.937 0 0 1 .032 1.692zm-3.321-2.05-.815-1.121.815-1.132-.465 1.142z" transform="translate(-13.8 -7.774)"/>
                <path id="Path_293" data-name="Path 293" class="cls-4" d="m122.046 50.623 5.545-5.923-5.833 5.621a9.18 9.18 0 0 0-3.558 1.79c1.047 1.9-3.974 7.834-6.1 6.265.438 1.207 2.019.714 2.019.714a7.1 7.1 0 0 0 .438 7.753c-4.423-6.737 5.929-13.344 6.485-13.565-.139-.915-1.581-1.177-1.581-1.177a8.738 8.738 0 0 1 2.585-1.478z" transform="translate(-101.886 -40.755)"/>
                <path id="Path_294" data-name="Path 294" class="cls-4" d="M53.921 137.2c-.331.278-1.218.994-2.2 1.784a3.922 3.922 0 0 0-.5 3.5 3.336 3.336 0 0 1-1.5-.588c-.235.577.513 1.357.748 1.581a4.943 4.943 0 0 0 .6.021l3.771-.662s-5.459-1.236-.919-5.636z" transform="translate(-45.845 -124.171)"/>
                <path id="Path_295" data-name="Path 295" class="cls-4" d="m213.888 94.8-1.688 2.051 1.464 2.714-.994-2.714z" transform="translate(-191.226 -86.007)"/>
            </g>
        </g>
    </g>
</svg>
