<svg data-name="Group 324" xmlns="http://www.w3.org/2000/svg" width="20" height="20" viewBox="0 0 20 20">
    <defs>
        <clipPath id="a">
            <path data-name="Rectangle 18" d="M0 0h20v20H0z"/>
        </clipPath>
    </defs>
    <g data-name="Group 323" style="clip-path:url(#a)">
        <path data-name="Path 442" d="M19.883 4.174 15.826.118a.4.4 0 0 0-.565 0l-1.529 1.527L16.8 4.71l-.566.566-3.068-3.066-1.36 1.362 2.177 2.178-.566.566-2.177-2.178L9.88 5.5l2.178 2.178-.566.566-2.178-2.18-1.361 1.361 3.065 3.065-.566.566L7.387 7.99 6.026 9.351 8.2 11.529l-.566.566-2.173-2.178L4.1 11.278l2.178 2.178-.566.566-2.178-2.179-1.36 1.357 3.1 3.1-.565.566-3.1-3.1L.117 15.26a.4.4 0 0 0 0 .566l4.058 4.058a.4.4 0 0 0 .283.116.4.4 0 0 0 .282-.117L19.883 4.74a.4.4 0 0 0 0-.566"/>
    </g>
</svg>
