<svg xmlns="http://www.w3.org/2000/svg" width="50" height="50" viewBox="0 0 50 50">
    <g data-name="Rectangle 12" style="stroke:rgba(255,255,255,.3);fill:none">
        <rect width="50" height="50" rx="25" style="stroke:none"/>
        <rect x=".5" y=".5" width="49" height="49" rx="24.5" style="fill:none"/>
    </g>
    <path data-name="Instagram 2" d="M209 51h-10a5 5 0 0 0-5 5v10a5 5 0 0 0 5 5h10a5 5 0 0 0 5-5V56a5 5 0 0 0-5-5zm3 15a3 3 0 0 1-3 3h-10a3 3 0 0 1-3-3V56a3 3 0 0 1 3-3h10a3 3 0 0 1 3 3zm-1.2-10.5a1.3 1.3 0 1 1-1.3-1.3 1.3 1.3 0 0 1 1.3 1.3zm-6.8.5a5 5 0 1 0 5 5 5.006 5.006 0 0 0-5-5zm0 8a3 3 0 1 1 3-3 3 3 0 0 1-3 3z" transform="translate(-179 -36)" style="fill:#fff"/>
</svg>
