<svg xmlns="http://www.w3.org/2000/svg" width="20" height="20" viewBox="0 0 20 20">
    <path d="M14.854 12.632c-.246-.1-.486-.193-.72-.29-1.337-.546-1.335-1.052-1.334-1.7a2.225 2.225 0 0 1 .762-1.768A4.61 4.61 0 0 0 15.2 5.188a5.2 5.2 0 0 0-10.392 0 4.633 4.633 0 0 0 1.638 3.716 2.222 2.222 0 0 1 .763 1.81c0 .582 0 1.086-1.34 1.634-.236.1-.48.194-.728.293-2.291.906-5.142 2.033-5.142 5.514v.262a1.433 1.433 0 0 0 1.4 1.58h17.208a1.429 1.429 0 0 0 1.391-1.58v-.262c.002-3.484-2.852-4.614-5.144-5.523z"/>
</svg>
