<svg xmlns="http://www.w3.org/2000/svg" width="50" height="50" viewBox="0 0 50 50">
    <g data-name="Rectangle 13" style="stroke:rgba(255,255,255,.3);fill:none">
        <rect width="50" height="50" rx="25" style="stroke:none"/>
        <rect x=".5" y=".5" width="49" height="49" rx="24.5" style="fill:none"/>
    </g>
    <path data-name="Twitter" d="M117 54.012a7.917 7.917 0 0 1-2.356.677 4.282 4.282 0 0 0 1.8-2.375 7.977 7.977 0 0 1-2.607 1.043 4.012 4.012 0 0 0-3-1.356 4.2 4.2 0 0 0-4.105 4.292 4.486 4.486 0 0 0 .106.978 11.494 11.494 0 0 1-8.461-4.483 4.431 4.431 0 0 0-.555 2.157 4.551 4.551 0 0 0 2.049 3.572c-.673-.023-1.636-.216-1.636-.538v.056a4.072 4.072 0 0 0 3.069 4.208 4.823 4.823 0 0 1-1.193.15 4.433 4.433 0 0 1-.828-.078 4.1 4.1 0 0 0 3.805 2.982 8.056 8.056 0 0 1-5.111 1.836 8.491 8.491 0 0 1-.977-.061A11.261 11.261 0 0 0 103.288 69c7.551 0 11.677-6.539 11.677-12.21 0-.187-.005-.373-.014-.557A8.507 8.507 0 0 0 117 54.012z" transform="translate(-82 -35)" style="fill:#fff"/>
</svg>
