<svg xmlns="http://www.w3.org/2000/svg" width="20" height="20" viewBox="0 0 20 20">
    <defs>
        <clipPath id="a">
            <path data-name="Rectangle 18" d="M0 0h20v20H0z"/>
        </clipPath>
    </defs>
    <g data-name="Group 296" style="clip-path:url(#a)">
        <path data-name="Path 453" d="M20 16v.8H0V16a2.678 2.678 0 0 0 2.4-2.537V8.9a7.4 7.4 0 0 1 5.589-7.025l.033-.007a1.983 1.983 0 0 1 3.962.058l.031.008A7.55 7.55 0 0 1 17.6 9.046v4.416A3.543 3.543 0 0 0 20 16M6.608 17.6a3.6 3.6 0 0 0 6.784 0z"/>
    </g>
</svg>
